<?xml version="1.0" encoding="UTF-8" standalone="no"?>
<svg
   viewBox="0 0 1024 1024"
   version="1.1"
   id="svg199"
   sodipodi:docname="Eclipse.icns.svg"
   xml:space="preserve"
   inkscape:version="1.3 (0e150ed, 2023-07-21)"
   inkscape:export-filename="Eclipse.iconset/16.png"
   inkscape:export-xdpi="1.5"
   inkscape:export-ydpi="1.5"
   xmlns:inkscape="http://www.inkscape.org/namespaces/inkscape"
   xmlns:sodipodi="http://sodipodi.sourceforge.net/DTD/sodipodi-0.dtd"
   xmlns="http://www.w3.org/2000/svg"
   xmlns:svg="http://www.w3.org/2000/svg"
   xmlns:bx="https://boxy-svg.com"><sodipodi:namedview
     id="namedview201"
     pagecolor="#ffffff"
     bordercolor="#000000"
     borderopacity="0.03529412"
     inkscape:showpageshadow="2"
     inkscape:pageopacity="0"
     inkscape:pagecheckerboard="true"
     inkscape:deskcolor="#d1d1d1"
     showgrid="false"
     inkscape:zoom="0.30279915"
     inkscape:cx="-345.11325"
     inkscape:cy="670.41139"
     inkscape:window-width="1832"
     inkscape:window-height="1027"
     inkscape:window-x="0"
     inkscape:window-y="25"
     inkscape:window-maximized="0"
     inkscape:current-layer="svg199" /><defs
     id="defs179"><filter
   id="shadow"
   bx:pinned="true"
   x="0"
   y="0"
   width="1"
   height="1"><title
     id="title132">Drop Shadow</title><feDropShadow
     result="drop-shadow-0"
     in="SourceGraphic"
     style="flood-opacity: 0.3;"
     stdDeviation="10"
     dx="0"
     dy="10" /></filter><bx:guide
   x="-10"
   y="100"
   angle="90" /><bx:guide
   x="100"
   y="-10"
   angle="0" /><bx:guide
   x="924"
   y="-10"
   angle="0" /><bx:guide
   x="-10"
   y="924"
   angle="90" /><clipPath
   id="clip-0"><path
     style="stroke-width: 3px; fill: rgb(255, 255, 255);"
     d="M 100 724 L 100 300 C 100 185.001 170 99.995 300.026 100 L 724 99.995 C 854 100 924 185.001 924 300 L 924 724 C 924 839.001 854 923.995 724 924 L 300.026 924 C 170 924 100 839.001 100 724 Z"
     id="path137"><title
       id="title135">Icon Mask</title></path></clipPath><symbol
   id="symbol-0"
   viewBox="0 0 1024 1024"
   bx:pinned="true"><title
     id="title140">App Icon Guides</title><g
     style=""
     transform="matrix(1, 0, 0, 1, 0, 0)"
     id="g176"><title
       id="title142">App Icon Guides</title><path
       style="fill: none; stroke: rgb(145, 145, 145); stroke-width: 3px;"
       d="M 0 739.001 L 0 285.001 C 0 135.001 112 0 284.999 0 L 739.001 0 C 912 0 1024 135.001 1024 285.001 L 1024 739.001 C 1024 889.001 912 1024 739.001 1024 L 284.999 1024 C 112 1024 0 889.001 0 739.001 Z"
       id="path146"><title
         id="title144">Outer Bounding Box</title></path><path
       style="stroke: rgb(145, 145, 145); fill: none; stroke-width: 3px;"
       d="M 50 739.001 L 50 285.001 C 50 162 140 50 284.999 50 L 739.001 50 C 884.001 50 974 162 974 285.001 L 974 739.001 C 974 862 884.001 974 739.001 974 L 284.999 974 C 140 974 50 862 50 739.001 Z"
       id="path150"><title
         id="title148">Inner Bounding Box</title></path><path
       style="fill: none; stroke: rgb(255, 0, 0); stroke-width: 3px;"
       d="M 100 724.005 L 100 300.005 C 100 185.006 170 100 300.026 100.005 L 724 100 C 854 100.005 924 185.006 924 300.005 L 924 724.005 C 924 839.006 854 924 724 924.005 L 300.026 924.005 C 170 924.005 100 839.006 100 724.005 Z"
       id="path154"><title
         id="title152">Icon Grid Bounding Box</title></path><path
       style="fill: none; stroke: rgb(255, 0, 0);"
       d="M 154.017 870.001 L 870.001 870.001 L 870.001 154.014 L 154.017 154.014 L 154.017 870.001 Z M 154.017 870.001 L 870.001 154.014 L 154.017 870.001 Z M 100 511.995 L 924 511.995 L 100 511.995 Z M 100 669.36 L 924 669.36 L 100 669.36 Z M 924 354.631 L 100 354.631 L 924 354.631 Z M 669.365 99.995 L 669.365 923.995 L 669.365 99.995 Z M 354.635 923.995 L 354.635 99.995 L 354.635 923.995 Z M 512 99.995 L 512 923.995 L 512 99.995 Z M 154.017 154.014 L 870.001 870.001 L 154.017 154.014 Z"
       id="path158"><title
         id="title156">Icon Grid</title></path><circle
       style="fill: none; stroke: rgba(255, 0, 0, 0.6);"
       cx="512"
       cy="511.995"
       r="157.397"
       id="circle162"><title
         id="title160">Grid Circle 1</title></circle><circle
       style="fill: none; stroke: rgba(255, 0, 0, 0.6);"
       cx="512"
       cy="511.995"
       r="222.577"
       id="circle166"><title
         id="title164">Grid Circle 2</title></circle><circle
       style="fill: none; stroke: rgba(255, 0, 0, 0.6);"
       cx="512"
       cy="511.995"
       r="358.001"
       id="circle170"><title
         id="title168">Grid Circle 3</title></circle><path
       d="M 1084.343 548.001 L 143.343 548.001 C 114.624 548.001 91.343 524.72 91.343 496.001 C 91.343 467.282 114.624 444.001 143.343 444.001 L 1084.343 444.001 C 1113.062 444.001 1136.343 467.282 1136.343 496.001 C 1136.343 524.72 1113.062 548.001 1084.343 548.001 Z M 1136.3 496.039 L 91.3 495.961"
       style="stroke-width: 5px; fill: rgba(0, 195, 255, 0.37); stroke: rgb(0, 119, 255); stroke-dasharray: 24, 10;"
       transform="matrix(0.430444, -0.902617, 0.902617, 0.430444, -98.093403, 836.54613)"
       id="path174"><title
         id="title172">Tool Angle</title></path></g></symbol><linearGradient
   id="SVGID_1_"
   gradientUnits="userSpaceOnUse"
   x1="68.400002"
   y1="12.5762"
   x2="68.400002"
   y2="86.211098"
   gradientTransform="matrix(0.1579547,0,0,-0.1579528,-12.672943,2.6698179)">&#10;		<stop
   offset="0.3033"
   style="stop-color:#473788"
   id="stop510" />&#10;		<stop
   offset="0.872"
   style="stop-color:#2C2255"
   id="stop512" />&#10;	</linearGradient><linearGradient
   id="SVGID_2_"
   gradientUnits="userSpaceOnUse"
   x1="68.400002"
   y1="12.5752"
   x2="68.400002"
   y2="86.210098"
   gradientTransform="matrix(0.1579547,0,0,-0.1579528,-12.672943,2.6698179)">&#10;		<stop
   offset="0.3033"
   style="stop-color:#473788"
   id="stop517" />&#10;		<stop
   offset="0.872"
   style="stop-color:#2C2255"
   id="stop519" />&#10;	</linearGradient><linearGradient
   id="SVGID_3_"
   gradientUnits="userSpaceOnUse"
   x1="68.400002"
   y1="12.5771"
   x2="68.400002"
   y2="86.208397"
   gradientTransform="matrix(0.1579547,0,0,-0.1579528,-12.672943,2.6698179)">&#10;		<stop
   offset="0.3033"
   style="stop-color:#473788"
   id="stop524" />&#10;		<stop
   offset="0.8631"
   style="stop-color:#2C2255"
   id="stop526" />&#10;	</linearGradient>&#10;	&#10;	&#10;	&#10;<filter
   style="color-interpolation-filters:sRGB;"
   inkscape:label="Drop Shadow"
   id="filter4155"
   x="-0.081553398"
   y="-0.081553398"
   width="1.1631068"
   height="1.1776699"><feFlood
     flood-opacity="0.498039"
     flood-color="rgb(0,0,0)"
     result="flood"
     id="feFlood4145" /><feComposite
     in="flood"
     in2="SourceGraphic"
     operator="in"
     result="composite1"
     id="feComposite4147" /><feGaussianBlur
     in="composite1"
     stdDeviation="28"
     result="blur"
     id="feGaussianBlur4149" /><feOffset
     dx="0"
     dy="12"
     result="offset"
     id="feOffset4151" /><feComposite
     in="SourceGraphic"
     in2="offset"
     operator="over"
     result="composite2"
     id="feComposite4153" /></filter><filter
   style="color-interpolation-filters:sRGB;"
   inkscape:label="Drop Shadow"
   id="filter3"
   x="-0.040776699"
   y="-0.040776699"
   width="1.0815534"
   height="1.0961165"><feFlood
     result="flood"
     in="SourceGraphic"
     flood-opacity="0.498039"
     flood-color="rgb(0,0,0)"
     id="feFlood2" /><feGaussianBlur
     result="blur"
     in="SourceGraphic"
     stdDeviation="14.000000"
     id="feGaussianBlur2" /><feOffset
     result="offset"
     in="blur"
     dx="0.000000"
     dy="12.000000"
     id="feOffset2" /><feComposite
     result="comp1"
     operator="in"
     in="flood"
     in2="offset"
     id="feComposite2" /><feComposite
     result="comp2"
     operator="over"
     in="SourceGraphic"
     in2="comp1"
     id="feComposite3" /></filter><filter
   style="color-interpolation-filters:sRGB;"
   inkscape:label="Drop Shadow"
   id="filter5"
   x="-0.081553398"
   y="-0.081553398"
   width="1.1631068"
   height="1.192233"><feFlood
     result="flood"
     in="SourceGraphic"
     flood-opacity="0.313726"
     flood-color="rgb(0,0,0)"
     id="feFlood3" /><feGaussianBlur
     result="blur"
     in="SourceGraphic"
     stdDeviation="14.000000"
     id="feGaussianBlur3" /><feOffset
     result="offset"
     in="blur"
     dx="0.000000"
     dy="12.000000"
     id="feOffset3" /><feComposite
     result="comp1"
     operator="in"
     in="flood"
     in2="offset"
     id="feComposite4" /><feComposite
     result="fbSourceGraphic"
     operator="over"
     in="SourceGraphic"
     in2="comp1"
     id="feComposite5" /><feColorMatrix
     result="fbSourceGraphicAlpha"
     in="fbSourceGraphic"
     values="0 0 0 -1 0 0 0 0 -1 0 0 0 0 -1 0 0 0 0 1 0"
     id="feColorMatrix5" /><feFlood
     id="feFlood5"
     result="flood"
     in="fbSourceGraphic"
     flood-opacity="0.301961"
     flood-color="rgb(0,0,0)" /><feGaussianBlur
     id="feGaussianBlur5"
     result="blur"
     in="fbSourceGraphic"
     stdDeviation="14.000000" /><feOffset
     id="feOffset5"
     result="offset"
     in="blur"
     dx="0.000000"
     dy="12.000000" /><feComposite
     id="feComposite6"
     result="comp1"
     operator="in"
     in="flood"
     in2="offset" /><feComposite
     id="feComposite7"
     result="comp2"
     operator="over"
     in="fbSourceGraphic"
     in2="comp1" /></filter><filter
   style="color-interpolation-filters:sRGB;"
   inkscape:label="Drop Shadow"
   id="filter9"
   x="-0.029126214"
   y="-0.029126214"
   width="1.0582524"
   height="1.0728155"><feFlood
     result="flood"
     in="SourceGraphic"
     flood-opacity="0.301961"
     flood-color="rgb(0,0,0)"
     id="feFlood7" /><feGaussianBlur
     result="blur"
     in="SourceGraphic"
     stdDeviation="10.000000"
     id="feGaussianBlur7" /><feOffset
     result="offset"
     in="blur"
     dx="0.000000"
     dy="12.000000"
     id="feOffset7" /><feComposite
     result="comp1"
     operator="in"
     in="flood"
     in2="offset"
     id="feComposite8" /><feComposite
     result="comp2"
     operator="over"
     in="SourceGraphic"
     in2="comp1"
     id="feComposite9" /></filter></defs><rect
     style="opacity:1;fill:#ffffff;fill-opacity:1;stroke:none;stroke-width:5;stroke-linecap:square;stroke-miterlimit:2;stroke-dasharray:none;stroke-opacity:1;filter:url(#filter9)"
     id="rect2911"
     width="824"
     height="824"
     x="100"
     y="100"
     rx="185.39999"
     ry="185.39999" /><g
     id="g2904"
     transform="matrix(0.67575236,0,0,0.67576057,-22.731446,142.20636)"
     style="stroke-width:1.47981"><path
       class="st0"
       d="M 556.67002,678.85773 H 400.21256 c 20.61117,71.20219 59.02288,134.90942 116.17201,191.12168 89.93961,89.93962 197.67978,134.90939 325.09424,134.90939 25.29551,0 49.65416,-1.8737 74.0128,-5.62119 95.56089,-14.05307 178.94239,-57.14913 250.14459,-129.2882 57.1491,-56.21226 95.5609,-119.91949 116.172,-191.12168 h -63.7072 -92.7503 z"
       id="path480"
       style="fill:#2c2255;stroke-width:1.47981" /><g
       id="g486"
       transform="matrix(9.36871,0,0,9.36871,199.72217,-41.59607)"
       style="stroke-width:0.157953">&#10;	<path
   class="st0"
   d="m 28.9,54.2 h -8.7 c -0.3,1.9 -0.5,3.9 -0.6,5.9 h 10.4 5.2 75.3 6.9 c -0.1,-2 -0.3,-4 -0.6,-5.9"
   id="path482"
   style="fill:#2c2255;stroke-width:0.157953" />&#10;	<path
   class="st0"
   d="m 19.5,65.6 c 0.1,2 0.3,4 0.6,5.9 h 9.1 6.9 73.6 6.8 c 0.3,-1.9 0.5,-3.9 0.6,-5.9"
   id="path484"
   style="fill:#2c2255;stroke-width:0.157953" />&#10;</g><path
       class="st0"
       d="M 1280.8714,414.6601 C 1260.2602,343.45791 1220.9116,278.81381 1164.6993,222.60155 1092.5602,151.39935 1010.1156,108.30329 914.55474,94.25022 890.1961,90.50274 865.83745,88.629 840.54193,88.629 c -126.47758,0 -234.21775,44.9698 -325.09423,133.97255 -56.21226,57.14913 -94.62397,120.85636 -116.17201,192.05856"
       id="path488"
       style="fill:#2c2255;stroke-width:1.47981" /><g
       id="g492"
       transform="matrix(9.36871,0,0,9.36871,199.72217,-41.59607)"
       style="stroke-width:0.157953">&#10;	<path
   class="st1"
   d="m 16.6,62.8 c 0,-25.8 19.4,-47.3 44.6,-51 -0.6,0 -1.3,0 -1.9,0 C 31,11.7 8.1,34.6 8.1,62.8 c 0,28.2 23,51.1 51.3,51.1 0.6,0 1.3,0 1.9,0 C 36,110.1 16.6,88.7 16.6,62.8 Z"
   id="path490"
   style="fill:#f7941e;stroke-width:0.157953" />&#10;</g><g
       id="g531"
       transform="matrix(9.36871,0,0,9.36871,199.72217,-41.59607)"
       style="stroke-width:0.157953">&#10;	&#10;		<linearGradient
   id="linearGradient693"
   gradientUnits="userSpaceOnUse"
   x1="68.400002"
   y1="12.5762"
   x2="68.400002"
   y2="86.211098"
   gradientTransform="matrix(1,0,0,-1,0,131)">&#10;		<stop
   offset="0.3033"
   style="stop-color:#473788"
   id="stop689" />&#10;		<stop
   offset="0.872"
   style="stop-color:#2C2255"
   id="stop691" />&#10;	</linearGradient>&#10;	<path
   class="st2"
   d="m 101.7,60.1 c -0.2,-2 -0.5,-4 -1,-5.9 H 36.1 c -0.5,1.9 -0.8,3.9 -1,5.9 z"
   id="path515"
   style="fill:url(#SVGID_1_);stroke-width:0.157953" />&#10;	&#10;		<linearGradient
   id="linearGradient700"
   gradientUnits="userSpaceOnUse"
   x1="68.400002"
   y1="12.5752"
   x2="68.400002"
   y2="86.210098"
   gradientTransform="matrix(1,0,0,-1,0,131)">&#10;		<stop
   offset="0.3033"
   style="stop-color:#473788"
   id="stop696" />&#10;		<stop
   offset="0.872"
   style="stop-color:#2C2255"
   id="stop698" />&#10;	</linearGradient>&#10;	<path
   class="st3"
   d="M 101.7,65.6 H 35.1 c 0.2,2 0.5,4 1,5.9 h 64.5 c 0.5,-1.9 0.9,-3.9 1.1,-5.9 z"
   id="path522"
   style="fill:url(#SVGID_2_);stroke-width:0.157953" />&#10;	&#10;		<linearGradient
   id="linearGradient707"
   gradientUnits="userSpaceOnUse"
   x1="68.400002"
   y1="12.5771"
   x2="68.400002"
   y2="86.208397"
   gradientTransform="matrix(1,0,0,-1,0,131)">&#10;		<stop
   offset="0.3033"
   style="stop-color:#473788"
   id="stop703" />&#10;		<stop
   offset="0.8631"
   style="stop-color:#2C2255"
   id="stop705" />&#10;	</linearGradient>&#10;	<path
   class="st4"
   d="m 68.4,96.2 c 13.4,0 24.9,-7.9 30.3,-19.3 H 38.1 C 43.4,88.3 55,96.2 68.4,96.2 Z"
   id="path529"
   style="fill:url(#SVGID_3_);stroke-width:0.157953" />&#10;</g><path
       class="st5"
       d="m 482.65723,573.4634 h 45.90668 624.89289 82.4447 62.7704 c 0,-8.66666 0.9368,-16.37037 0.9368,-25.03703 0,-9.62963 0,-18.2963 -0.9368,-26.96297 h -61.8335 -82.4447 -625.82979 -48.71729 -97.43458 c -0.93688,8.66667 -0.93688,18.2963 -0.93688,26.96297 0,8.66666 0,17.33333 0.93688,25.03703 z"
       id="path533"
       style="fill:#ffffff;stroke-width:1.47981" /><path
       class="st5"
       d="M 554.79628,414.6601 H 400.21256 c -4.68435,17.01818 -8.43183,34.03636 -11.24245,52 h 79.63404 68.39158 606.15557 86.1921 60.8966 c -2.8106,-17.96364 -7.495,-34.98182 -12.1793,-52"
       id="path535"
       style="fill:#ffffff;stroke-width:1.47981" /><path
       class="st5"
       d="m 1230.2803,628.26668 h -86.1922 -605.21863 -64.6441 -85.25526 c 2.81062,17.96363 6.5581,34.98182 11.24245,52 h 157.39433 568.68071 93.6871 60.8966 c 4.6844,-17.01818 9.3687,-34.03637 12.1793,-52 z"
       id="path537"
       style="fill:#ffffff;stroke-width:1.47981" /><circle
       style="fill:none;fill-opacity:0.698039;stroke:#000000;stroke-width:23.6771;stroke-linecap:square;stroke-miterlimit:2;stroke-opacity:1"
       id="path1494"
       cx="840.54193"
       cy="547.6958"
       r="454.63626" /></g></svg>
